<svg width="52" height="51" viewBox="0 0 52 51" fill="none" xmlns="http://www.w3.org/2000/svg">
<rect width="52" height="51" rx="6" fill="url(#paint0_linear_113_12)"/>
<path d="M16.86 13C15.8852 13 15.0436 13.4687 14.2746 14.1237C13.5057 14.7787 12.8033 15.65 12.1797 16.7677C10.9264 19.003 10 22.1457 10 26.0576C10 28.0646 10.4723 30.1317 11.4107 31.7842C11.6166 32.1447 11.9557 32.3851 12.216 32.7036C11.5197 33.5628 10.3633 35.1552 10.3633 35.1552L12.2221 37C12.2221 37 13.5057 35.2454 14.323 34.2779C14.8438 34.5003 15.3342 34.8007 15.9396 34.8007C18.1557 34.8007 20.4686 33.8393 22.5998 32.6375C23.284 33.1602 24.059 33.5208 24.8582 33.5208C27.5102 33.5208 29.5324 31.9705 30.9553 30.5944C31.367 30.1918 31.6455 29.8973 31.9664 29.5548C31.9603 29.9034 31.9482 30.2278 32.0451 30.6365C32.1238 30.9489 32.2086 31.3335 32.5295 31.676C32.8504 32.0185 33.4316 32.2349 33.9039 32.2349C34.8484 32.2349 35.3934 31.8022 35.9625 31.3936C36.5316 30.985 37.0705 30.4922 37.6578 30.0295C38.8264 29.1042 40.0797 28.3831 41 28.3831V25.8172C38.9535 25.8172 37.349 27.019 36.0775 28.0225C35.4721 28.4972 34.9271 28.9119 34.5033 29.2243V29.0621C34.5215 28.5934 34.5881 28.0766 34.5033 27.4998C34.4609 27.2113 34.3641 26.9109 34.0977 26.5383C33.8312 26.1657 33.2318 25.8172 32.7232 25.8172C31.9967 25.8172 31.7303 26.1297 31.4699 26.34C31.2096 26.5503 31.0219 26.7667 30.7857 27.019C30.3135 27.5298 29.7443 28.1487 29.1328 28.7436C28.049 29.7952 26.7715 30.5944 25.3789 30.7867C26.3053 30.0476 27.2316 29.3205 27.8795 28.5033C28.7393 27.4337 29.375 26.34 29.375 25.0601C29.375 24.339 29.2842 23.3535 28.7271 22.4161C28.1701 21.4787 26.9773 20.6915 25.5 20.6915C23.9076 20.6915 22.4605 21.4667 21.5826 22.6925C20.7047 23.9184 20.3293 25.4927 20.3293 27.3375C20.3293 28.5934 20.6199 29.6329 21.0135 30.5403C19.2152 31.4777 17.3564 32.2228 15.9275 32.2228C18.1133 28.972 20.3293 24.5433 20.3293 19.1652C20.3293 18.0476 20.3414 16.7316 19.966 15.5178C19.7783 14.9109 19.4816 14.2979 18.9549 13.7932C18.4281 13.2884 17.6592 13 16.86 13ZM16.86 15.5658C17.09 15.5658 17.1021 15.6139 17.1809 15.686C17.2596 15.7641 17.3564 15.9444 17.4654 16.2869C17.6713 16.9599 17.75 18.1017 17.75 19.1713C17.75 23.7141 15.7943 27.692 13.8326 30.6665L13.6691 30.5043C12.9971 29.3385 12.5793 27.638 12.5793 26.0576C12.5793 22.5363 13.427 19.8082 14.4381 18.0055C14.9406 17.1042 15.4613 16.4432 15.9336 16.0406C16.4059 15.638 16.7994 15.5658 16.86 15.5658ZM25.5 23.2574C26.2145 23.2574 26.3234 23.4256 26.5111 23.7381C26.6988 24.0506 26.7957 24.6274 26.7957 25.0601C26.7957 25.3786 26.5232 26.1297 25.8693 26.9409C25.3002 27.65 24.4283 28.3891 23.4898 29.1042C23.2598 28.5874 22.9268 28.2148 22.9268 27.3435C22.9268 25.8533 23.2477 24.7717 23.6957 24.1407C24.1437 23.5098 24.6402 23.2574 25.5 23.2574Z" fill="white"/>
<defs>
<linearGradient id="paint0_linear_113_12" x1="26" y1="0" x2="26" y2="51" gradientUnits="userSpaceOnUse">
<stop stop-color="#339DFF"/>
<stop offset="1" stop-color="#0682F4" stop-opacity="0.81"/>
</linearGradient>
</defs>
</svg>
