<svg width="31" height="24" viewBox="0 0 31 24" fill="none" xmlns="http://www.w3.org/2000/svg">
<path d="M6.85996 0C5.88516 0 5.04355 0.468703 4.27461 1.12369C3.50566 1.77867 2.80332 2.64998 2.17969 3.76765C0.926367 6.003 0 9.14572 0 13.0576C0 15.0646 0.472265 17.1317 1.41074 18.7842C1.6166 19.1447 1.95566 19.3851 2.21602 19.7036C1.51973 20.5628 0.363281 22.1552 0.363281 22.1552L2.22207 24C2.22207 24 3.50566 22.2454 4.32305 21.2779C4.84375 21.5003 5.33418 21.8007 5.93965 21.8007C8.15566 21.8007 10.4686 20.8393 12.5998 19.6375C13.284 20.1602 14.059 20.5208 14.8582 20.5208C17.5102 20.5208 19.5324 18.9705 20.9553 17.5944C21.367 17.1918 21.6455 16.8973 21.9664 16.5548C21.9603 16.9034 21.9482 17.2278 22.0451 17.6365C22.1238 17.9489 22.2086 18.3335 22.5295 18.676C22.8504 19.0185 23.4316 19.2349 23.9039 19.2349C24.8484 19.2349 25.3934 18.8022 25.9625 18.3936C26.5316 17.985 27.0705 17.4922 27.6578 17.0295C28.8264 16.1042 30.0797 15.3831 31 15.3831V12.8172C28.9535 12.8172 27.349 14.019 26.0775 15.0225C25.4721 15.4972 24.9271 15.9119 24.5033 16.2243V16.0621C24.5215 15.5934 24.5881 15.0766 24.5033 14.4998C24.4609 14.2113 24.3641 13.9109 24.0977 13.5383C23.8312 13.1657 23.2318 12.8172 22.7232 12.8172C21.9967 12.8172 21.7303 13.1297 21.4699 13.34C21.2096 13.5503 21.0219 13.7667 20.7857 14.019C20.3135 14.5298 19.7443 15.1487 19.1328 15.7436C18.049 16.7952 16.7715 17.5944 15.3789 17.7867C16.3053 17.0476 17.2316 16.3205 17.8795 15.5033C18.7393 14.4337 19.375 13.34 19.375 12.0601C19.375 11.339 19.2842 10.3535 18.7271 9.41612C18.1701 8.47872 16.9773 7.69154 15.5 7.69154C13.9076 7.69154 12.4605 8.4667 11.5826 9.69254C10.7047 10.9184 10.3293 12.4927 10.3293 14.3375C10.3293 15.5934 10.6199 16.6329 11.0135 17.5403C9.21523 18.4777 7.35645 19.2228 5.92754 19.2228C8.11328 15.972 10.3293 11.5433 10.3293 6.16525C10.3293 5.04757 10.3414 3.7316 9.96602 2.51778C9.77832 1.91087 9.48164 1.29795 8.95488 0.79319C8.42812 0.288433 7.65918 0 6.85996 0ZM6.85996 2.56585C7.09004 2.56585 7.10215 2.61392 7.18086 2.68603C7.25957 2.76415 7.35645 2.94442 7.46543 3.28693C7.67129 3.95994 7.75 5.10165 7.75 6.17126C7.75 10.7141 5.79434 14.692 3.83262 17.6665L3.66914 17.5043C2.99707 16.3385 2.5793 14.638 2.5793 13.0576C2.5793 9.53631 3.42695 6.80821 4.43809 5.00551C4.94063 4.10416 5.46133 3.44316 5.93359 3.04056C6.40586 2.63796 6.79941 2.56585 6.85996 2.56585ZM15.5 10.2574C16.2145 10.2574 16.3234 10.4256 16.5111 10.7381C16.6988 11.0506 16.7957 11.6274 16.7957 12.0601C16.7957 12.3786 16.5232 13.1297 15.8693 13.9409C15.3002 14.65 14.4283 15.3891 13.4898 16.1042C13.2598 15.5874 12.9268 15.2148 12.9268 14.3435C12.9268 12.8533 13.2477 11.7717 13.6957 11.1407C14.1437 10.5098 14.6402 10.2574 15.5 10.2574Z" fill="white"/>
</svg>
